Coordinates

Units are S.I. units (second, meters, Newtons, ...)
If the header above contains a line with 'inDegrees', this indicates whether rotational values are in degrees (yes) or radians (no).

inDegrees=no
nColumns=21
nRows=28
DataType=double
version=3
OpenSimVersion=4.6-2026-03-31-d6972f9e6
endheader
time	/jointset/ground_pelvis/pelvis_tilt/value	/jointset/ground_pelvis/pelvis_list/value	/jointset/ground_pelvis/pelvis_rotation/value	/jointset/ground_pelvis/pelvis_tx/value	/jointset/ground_pelvis/pelvis_ty/value	/jointset/ground_pelvis/pelvis_tz/value	/jointset/hip_r/hip_flexion_r/value	/jointset/hip_r/hip_adduction_r/value	/jointset/hip_r/hip_rotation_r/value	/jointset/walker_knee_r/knee_angle_r/value	/jointset/patellofemoral_r/knee_angle_r_beta/value	/jointset/ankle_r/ankle_angle_r/value	/jointset/subtalar_r/subtalar_angle_r/value	/jointset/hip_l/hip_flexion_l/value	/jointset/hip_l/hip_adduction_l/value	/jointset/hip_l/hip_rotation_l/value	/jointset/walker_knee_l/knee_angle_l/value	/jointset/patellofemoral_l/knee_angle_l_beta/value	/jointset/ankle_l/ankle_angle_l/value	/jointset/subtalar_l/subtalar_angle_l/value
147.496	0.118298013941413	0.03222583978387572	1.418388510825111	0.8461007854831195	1.08382694866463	-0.9731959307258189	0.3470197534233303	0.3151221662460353	0.1774895012508289	0.859209949382325	0.8592099508340736	0.2548927721754504	-0.5280740630191764	-0.01816266432589931	-0.2584986164628856	-0.04674241333312097	1.645332109802725	1.645332110593066	-0.4925963788509253	-0.5886457290017251
147.5	0.1169956314193777	0.03358434354027371	1.417916005605324	0.8459424049523229	1.082858259081255	-0.9721766269733041	0.3344602683153179	0.3130713076787345	0.1801617208233559	0.8624702554528579	0.8624702568688202	0.2718581014716984	-0.522954559160089	6.531771995851685e-05	-0.2612336905161231	-0.04448096751292999	1.661822736932934	1.661822737834074	-0.4820625148467775	-0.5862469624939152
147.504	0.1151916574661556	0.03483793038206065	1.418150236622687	0.8457084019147351	1.082209013080893	-0.9712281198475031	0.3207488358633908	0.3099594426495487	0.1826940049001811	0.8631687529194018	0.8631687542699927	0.2880712234455852	-0.51740689745708	0.01877696741307158	-0.2628556932560225	-0.041427923509523	1.676693078867405	1.676693079863696	-0.4713749060536871	-0.5828116668008227
147.508	0.1128902351112182	0.03595741227921862	1.419059912911317	0.8454057468069412	1.081873410927869	-0.9703547041412671	0.305982869539179	0.3058379096353789	0.1851106963916006	0.8613991546288879	0.8613991558832186	0.3033585971322331	-0.51160769078271	0.03793406649636959	-0.2633573202944474	-0.03769966601222146	1.68990818463048	1.68990818569751	-0.4605312718167636	-0.5783551295668644
147.512	0.1100987592538315	0.03690861580782809	1.420600860399785	0.8450426647552362	1.081842812462352	-0.9695595333318002	0.2902708995465068	0.3007678405912877	0.1874365848057226	0.8572701730963829	0.8572701742238186	0.3175568529912791	-0.5057247702404203	0.05749479157538082	-0.262743863182406	-0.0334225365959301	1.701440968973386	1.701440970080309	-0.4495257652511669	-0.5728980021817058
147.516	0.1068271404399435	0.03765333110700273	1.422717668993902	0.8446283293013244	1.082106107417304	-0.9688446812874385	0.2737296639457488	0.2948172215074294	0.189696565275591	0.850901910400767	0.850901911372514	0.3305131790860942	-0.4999145974728508	0.07741449148366703	-0.2610321928584926	-0.02872945219338945	1.711272023393934	1.711272024506425	-0.4383511171453888	-0.5664676116142731
147.52	0.1030870284035165	0.03815056319884579	1.42534552653992	0.8441725427334035	1.082650132627514	-0.9682112394119212	0.2564811270176861	0.2880579053017557	0.1919152406145947	0.8424226435092782	0.8424226442999665	0.3420852581386931	-0.4943201994910392	0.09764626247286352	-0.2582494299812421	-0.02375660352516616	1.71938916898402	1.719389170067256	-0.4270012357095169	-0.5591000534756473
147.524	0.09889107155083333	0.03835802299837174	1.428412165241771	0.8436854159522694	1.083460116778434	-0.9676594411209859	0.2386495403693772	0.2805627613629219	0.1941164358538623	0.8319661014738401	0.8319661020631075	0.3521408501809402	-0.4890695733902814	0.1181413058457204	-0.2544314253498589	-0.01864034896416177	1.725786794204935	1.725786795226227	-0.4154741552536426	-0.5508429564540772
147.528	0.09425225785324212	0.03823378381521354	1.431839869609901	0.8431770571302706	1.08452013259113	-0.9671888040380828	0.2203586696546273	0.2724030832282572	0.1963225538829035	0.8196693153362486	0.8196693157103566	0.3605572414204462	-0.484274328299492	0.1388490803400535	-0.2496211327864631	-0.01351435815793747	1.730465043009096	1.730465043940026	-0.4037750378845671	-0.5417585738005832
147.532	0.08918337320882215	0.03773806146604494	1.435547561837336	0.8426572686487542	1.085813542253386	-0.9667982825673176	0.201729253554585	0.2636462964229304	0.1985535835534833	0.8056710575248565	0.8056710576782435	0.3672208734522847	-0.4800281423334399	0.1597172523100359	-0.24386691783302	-0.008506942574470041	1.733428930846828	1.733428931664846	-0.3919187166358147	-0.5319265234618539
147.536	0.08369660994515733	0.03683507545733403	1.439453005926721	0.8421352483891796	1.087323425381814	-0.9664864251318126	0.1828767301942169	0.2543539751311752	0.200825556569565	0.7901108208420237	0.7901108207785199	0.372027450772451	-0.4764046320361403	0.1806914674600188	-0.2372208410009245	-0.003738462587173301	1.734687465759494	1.734687466448798	-0.3799312787885951	-0.5214454310300483
147.54	0.07780334637152007	0.03549489121597699	1.443475083242603	0.8416193039147947	1.08903297738338	-0.966251528656026	0.1639092820869039	0.244580238100733	0.2031484935886176	0.7731282452448525	0.7731282449782448	0.3748825865924637	-0.4734546673348862	0.2017150139769384	-0.2297369887162748	0.0006811735475974422	1.734252821422451	1.734252821973941	-0.3678506078370881	-0.5104332345314799
147.544	0.07151410618341103	0.0336951068898664	1.447536012424291	0.8411165994858771	1.090925865877135	-0.9660917815991287	0.1449262493598467	0.2343706535245252	0.2055241229847623	0.7548628679251473	0.754862867478938	0.3757028053530614	-0.4712036121279891	0.2227284667877558	-0.2214699488577646	0.004654783702714139	1.732139574885716	1.732139575296031	-0.355726210796757	-0.4990264511994125
147.548	0.06483870075524412	0.03142229000808848	1.451563416564257	0.840632951471892	1.092986536821995	-0.9660053885697967	0.1260169057105227	0.2237617478729793	0.2079436548984889	0.7354540505302337	0.735454049936626	0.3744167065862782	-0.4696490106202224	0.2436693704913956	-0.2124735052859053	0.00809986394839385	1.728364016970421	1.728364017240359	-0.3436186395873688	-0.487378715317426
147.552	0.05778655574263662	0.02867312653958011	1.455492189904264	0.8401726787183927	1.09520046596705	-0.965990672452553	0.1072595404143556	0.2127811417434609	0.2103857977893137	0.715040941976952	0.7150409412752415	0.3709661968689025	-0.4687590317248954	0.2644719771540301	-0.2027995987693532	0.01095020270986227	1.72294355351188	1.72294355364455	-0.3315985703417063	-0.4756586169092208
147.556	0.05036722417402934	0.0254552342334039	1.459266088179203	0.8397385147390855	1.097554350706943	-0.9660461516327939	0.08872081644624068	0.201448306370986	0.2128152090059146	0.6937623707447234	0.693762369979336	0.3653077358951159	-0.4684718093262115	0.2850670670027505	-0.1924976205467042	0.01315711638613051	1.715896216342751	1.715896216341784	-0.3197454996324263	-0.4640467877384098
147.56	0.04259108693825601	0.02178754852849114	1.462838912431083	0.8393315933693332	1.100036235045871	-0.9661705902428376	0.07045543924697031	0.1897759311900749	0.2151816233010719	0.6717566047453953	0.6717566039637841	0.3574135230575596	-0.4686957313062097	0.305381922474988	-0.1816141378917302	0.01469019482007059	1.707240294846388	1.707240294714573	-0.3081460750169841	-0.4527323212584397
147.564	0.03447023168113015	0.01770021378291503	1.466175175708035	0.8389515166513295	1.102635563204006	-0.9663630205011601	0.05250615918405282	0.1777718611960825	0.2174198656611182	0.6491609316673307	0.6491609309178303	0.3472725421528433	-0.4693107170944441	0.3253405125822341	-0.1701931310553887	0.01553745648923958	1.696994090201373	1.696994089940017	-0.2968921017541373	-0.4419086868599395
147.568	0.02601947564986447	0.01323399407183841	1.469250229665088	0.8385965029413742	1.105343164563535	-0.966622738554069	0.03490406172061145	0.1654414924254824	0.2194508198989031	0.6261110128314893	0.6261110121610978	0.3348913984380887	-0.4701705297361132	0.3448638862711892	-0.1582767404857443	0.01570490322787707	1.685175787486087	1.685175787095193	-0.2860782263900463	-0.4317692315380141
147.572	0.01725745498101286	0.008439261110316659	1.472049904790327	0.8382636028943162	1.108151176691462	-0.9669492765646086	0.01766908919385524	0.1527904341323293	0.2211832868003965	0.6027399968597894	0.6027399963119145	0.3202949085714651	-0.4711061237406543	0.3638707597795239	-0.1459064237692952	0.01521553726291609	1.671803436537904	1.671803436016977	-0.27579932866703	-0.4225023427372061
147.576	0.00820766207671216	0.003374612855608006	1.474569752752177	0.8379489650707946	1.111052913142105	-0.9673423537943042	0.0008107842816551756	0.139827191887477	0.2225165802199353	0.57917743669441	0.5791774363068616	0.3035264350702997	-0.4719299418748111	0.3822783094724841	-0.1331243437067918	0.01410792794868956	1.656895030555647	1.656895029904781	-0.2661477399712601	-0.4142864182880007
147.58	-0.001100701988966199	-0.001894827362182071	1.476813989302338	0.8376481303115793	1.114042682516758	-0.9678018095710849	-0.01567072411153493	0.126565614678067	0.22334366676627	0.5555480981473471	0.5555480979508941	0.2846479905077889	-0.4724409917562751	0.4000031902002031	-0.1199747748145797	0.01243441763089977	1.640468670422754	1.640468669643803	-0.2572104239887593	-0.407284839634923
147.584	-0.01063218046336721	-0.007299377700475097	1.478794234196171	0.8373563336913443	1.117115565792241	-0.9683275214715688	-0.03178346437085559	0.1130268762838617	0.2235546360422689	0.5319707740321785	0.5319707740497497	0.2637401642686277	-0.4724304769993679	0.4169627894663256	-0.1065053255953942	0.01025904968784039	1.622542802039916	1.622542801137725	-0.2490662134532483	-0.4016411431203187
147.588	-0.02034490512145237	-0.01276697260041729	1.480528131642309	0.8370687952052822	1.120267159796703	-0.9689193123186182	-0.04754207245146525	0.09924081986323112	0.2230402957958471	0.5085572263775827	0.5085572266240389	0.2409019338827602	-0.4716877365992915	0.4330767138365884	-0.09276782240066643	0.007655289944240446	1.603136513106034	1.60313651208967	-0.241783168464628	-0.3974745565600774
147.592	-0.03019086679682517	-0.01822548161014215	1.482037913969821	0.8367809849064662	1.123493295788736	-0.9695768497553366	-0.06296594395587678	0.08524657584992085	0.2216957203290748	0.4854113708138484	0.485411371296311	0.2162504094477194	-0.4700062596218433	0.4482684865363143	-0.0788187740621565	0.004703601391413299	1.582269875130641	1.582269874014361	-0.2354161148501024	-0.3948760275274197
147.596	-0.04011659402091446	-0.02360510083147347	1.483348951912855	0.8364888530162269	1.126789743427948	-0.970299542436555	-0.07807711048279437	0.07109244786793169	0.2194236319774045	0.462628794132349	0.4626287948509868	0.1899205302899077	-0.4671895783096325	0.4624674149017056	-0.06471940913196178	0.001488927032349214	1.559964316691408	1.559964315495065	-0.2300044223076953	-0.3939048398022047
147.6	-0.05006417070867592	-0.02884071851588238	1.484488321558832	0.8361890200233735	1.130151913582634	-0.9710864379695474	-0.09289792665188237	0.05683514152418327	0.2161375721851612	0.4402966437192656	0.4402966446681568	0.1620646818400829	-0.4630569120024746	0.4756105412844852	-0.0505353405335591	-0.001901864375299677	1.536243011789044	1.536243010537691	-0.2255700927715074	-0.3945859148224273
147.604	-0.05997247696734828	-0.03387411018990024	1.485483409113699	0.835878926286745	1.133574578021426	-0.9719361292680672	-0.1074487508478633	0.0425384834604919	0.211764908246459	0.4184938510202198	0.4184938521877877	0.1328521343599618	-0.4574485270211073	0.4876445213848583	-0.03633596756919674	-0.005382513836641554	1.511131262268343	1.511131260990925	-0.2221162459033863	-0.3969079170315379
